<svg width="250" height="120" viewBox="0 0 250 120" fill="none" xmlns="http://www.w3.org/2000/svg">
<path d="M0 65.3351L27.7236 31.2356H0.384745V23.6067H38.3481V30.2738L10.8168 64.2798H39.2165V71.9087H0V65.3351Z" fill="#FC4C02"/>
<path d="M71.2943 72.8704C56.7069 72.8704 45.9835 61.6633 45.9835 47.752C45.9835 33.8407 56.7069 22.6337 71.2943 22.6337C85.7827 22.6337 96.5061 33.8407 96.5061 47.752C96.5061 61.6633 85.7827 72.8704 71.2943 72.8704ZM71.2943 65.1425C81.3416 65.1425 88.0032 57.4146 88.0032 47.752C88.0032 38.0894 81.3361 30.3616 71.2943 30.3616C61.2469 30.3616 54.4864 38.0894 54.4864 47.752C54.4864 57.4146 61.2469 65.1425 71.2943 65.1425Z" fill="#FC4C02"/>
<path d="M137.271 37.1281L125.295 71.9036H117.951L101.528 23.6016H110.224L121.914 58.8607L133.99 23.6016H140.366L152.441 58.8607L164.132 23.6016H172.921L156.497 71.9036H149.154L137.271 37.1281Z" fill="#FC4C02"/>
<path d="M186.15 11.7842C182.864 11.7842 180.159 9.17343 180.159 5.8921C180.159 2.70421 182.864 0 186.15 0C189.437 0 191.949 2.70421 191.949 5.8921C191.949 9.17892 189.437 11.7842 186.15 11.7842Z" fill="#FC4C02"/>
<path d="M186.149 95.4768C182.862 95.4768 180.158 92.8661 180.158 89.5847C180.158 86.3968 182.862 83.6926 186.149 83.6926C189.436 83.6926 191.948 86.3968 191.948 89.5847C191.948 92.8661 189.436 95.4768 186.149 95.4768Z" fill="#FC4C02"/>
<path d="M186.149 119.051C182.862 119.051 180.158 116.44 180.158 113.159C180.158 109.971 182.862 107.267 186.149 107.267C189.436 107.267 191.948 109.971 191.948 113.159C191.948 116.44 189.436 119.051 186.149 119.051Z" fill="#FC4C02"/>
<path d="M190.212 23.6067H181.902V71.9087H190.212V23.6067Z" fill="#FC4C02"/>
<path d="M226.526 72.8704C212.422 72.8704 202.182 62.147 202.182 47.752C202.182 33.6484 211.647 22.6337 226.718 22.6337C241.882 22.6337 251.061 35.0005 249.902 49.9726H210.586C210.877 58.7612 217.929 65.3294 226.625 65.3294C232.616 65.3294 237.733 63.0099 240.629 57.2168H249.132C246.719 65.7251 238.799 72.8704 226.526 72.8704ZM210.976 43.4099H241.118C239.574 34.4234 233.583 29.9823 226.432 29.9823C219.479 29.9823 212.62 33.8462 210.976 43.4099Z" fill="#FC4C02"/>
</svg>
